<svg width="14" height="14" viewBox="0 0 14 14" fill="none" xmlns="http://www.w3.org/2000/svg">
<path d="M3.49996 5.25004H2.62496C2.23819 5.25004 1.86725 5.0964 1.59376 4.8229C1.32027 4.54941 1.16663 4.17848 1.16663 3.79171C1.16663 3.40493 1.32027 3.034 1.59376 2.76051C1.86725 2.48702 2.23819 2.33337 2.62496 2.33337H3.49996" stroke="#EDB25E" stroke-width="1.16667" stroke-linecap="round" stroke-linejoin="round"/>
<path d="M10.5 5.25004H11.375C11.7618 5.25004 12.1327 5.0964 12.4062 4.8229C12.6797 4.54941 12.8333 4.17848 12.8333 3.79171C12.8333 3.40493 12.6797 3.034 12.4062 2.76051C12.1327 2.48702 11.7618 2.33337 11.375 2.33337H10.5" stroke="#EDB25E" stroke-width="1.16667" stroke-linecap="round" stroke-linejoin="round"/>
<path d="M2.33337 12.8334H11.6667" stroke="#EDB25E" stroke-width="1.16667" stroke-linecap="round" stroke-linejoin="round"/>
<path d="M5.83337 8.55164V9.91664C5.83337 10.2375 5.55921 10.4883 5.26754 10.6225C4.57921 10.9375 4.08337 11.8066 4.08337 12.8333" stroke="#EDB25E" stroke-width="1.16667" stroke-linecap="round" stroke-linejoin="round"/>
<path d="M8.16663 8.55164V9.91664C8.16663 10.2375 8.44079 10.4883 8.73246 10.6225C9.42079 10.9375 9.91663 11.8066 9.91663 12.8333" stroke="#EDB25E" stroke-width="1.16667" stroke-linecap="round" stroke-linejoin="round"/>
<path d="M10.5 1.16663H3.5V5.24996C3.5 6.17822 3.86875 7.06846 4.52513 7.72483C5.1815 8.38121 6.07174 8.74996 7 8.74996C7.92826 8.74996 8.8185 8.38121 9.47487 7.72483C10.1313 7.06846 10.5 6.17822 10.5 5.24996V1.16663Z" stroke="#EDB25E" stroke-width="1.16667" stroke-linecap="round" stroke-linejoin="round"/>
</svg>
