<svg width="12" height="12" viewBox="0 0 12 12" fill="none" xmlns="http://www.w3.org/2000/svg">
<path d="M6 1.5C6.33333 2.83333 7 3.91667 8 4.75C9 5.58333 9.5 6.5 9.5 7.5C9.5 8.42826 9.13125 9.3185 8.47487 9.97487C7.8185 10.6313 6.92826 11 6 11C5.07174 11 4.1815 10.6313 3.52513 9.97487C2.86875 9.3185 2.5 8.42826 2.5 7.5C2.5 6.95907 2.67544 6.43274 3 6C3 6.33152 3.1317 6.64946 3.36612 6.88388C3.60054 7.1183 3.91848 7.25 4.25 7.25C4.58152 7.25 4.89946 7.1183 5.13388 6.88388C5.3683 6.64946 5.5 6.33152 5.5 6C5.5 5 4.75 4.5 4.75 3.5C4.75 2.83333 5.16667 2.16667 6 1.5Z" stroke="#CF4040" stroke-linecap="round" stroke-linejoin="round"/>
</svg>
