<svg width="14" height="14" viewBox="0 0 14 14" fill="none" xmlns="http://www.w3.org/2000/svg">
<g clip-path="url(#clip0_237_491)">
<path d="M3.50002 5.25004H2.62502C2.23825 5.25004 1.86731 5.0964 1.59382 4.8229C1.32033 4.54941 1.16669 4.17848 1.16669 3.79171C1.16669 3.40493 1.32033 3.034 1.59382 2.76051C1.86731 2.48702 2.23825 2.33337 2.62502 2.33337H3.50002" stroke="#EDB25E" stroke-width="1.16667" stroke-linecap="round" stroke-linejoin="round"/>
<path d="M10.5 5.25004H11.375C11.7618 5.25004 12.1327 5.0964 12.4062 4.8229C12.6797 4.54941 12.8333 4.17848 12.8333 3.79171C12.8333 3.40493 12.6797 3.034 12.4062 2.76051C12.1327 2.48702 11.7618 2.33337 11.375 2.33337H10.5" stroke="#EDB25E" stroke-width="1.16667" stroke-linecap="round" stroke-linejoin="round"/>
<path d="M2.33331 12.8334H11.6666" stroke="#EDB25E" stroke-width="1.16667" stroke-linecap="round" stroke-linejoin="round"/>
<path d="M5.83331 8.55164V9.91664C5.83331 10.2375 5.55915 10.4883 5.26748 10.6225C4.57915 10.9375 4.08331 11.8066 4.08331 12.8333" stroke="#EDB25E" stroke-width="1.16667" stroke-linecap="round" stroke-linejoin="round"/>
<path d="M8.16669 8.55164V9.91664C8.16669 10.2375 8.44085 10.4883 8.73252 10.6225C9.42085 10.9375 9.91669 11.8066 9.91669 12.8333" stroke="#EDB25E" stroke-width="1.16667" stroke-linecap="round" stroke-linejoin="round"/>
<path d="M10.5 1.16663H3.5V5.24996C3.5 6.17822 3.86875 7.06846 4.52513 7.72483C5.1815 8.38121 6.07174 8.74996 7 8.74996C7.92826 8.74996 8.8185 8.38121 9.47487 7.72483C10.1313 7.06846 10.5 6.17822 10.5 5.24996V1.16663Z" stroke="#EDB25E" stroke-width="1.16667" stroke-linecap="round" stroke-linejoin="round"/>
</g>
<defs>
<clipPath id="clip0_237_491">
<rect width="14" height="14" fill="white"/>
</clipPath>
</defs>
</svg>
