<svg width="64" height="64" viewBox="0 0 64 64" fill="none" xmlns="http://www.w3.org/2000/svg">
<g clip-path="url(#clip0_220_2304)">
<rect width="55" height="18" transform="translate(43.45 -8.79004) rotate(45)" fill="#70C2A7" fill-opacity="0.3"/>
<path d="M53.9116 15.6031C53.9116 15.5078 53.9147 15.4259 53.9209 15.3576C53.9292 15.2871 53.9479 15.2374 53.9769 15.2084C54.0079 15.1773 54.0483 15.1639 54.0981 15.168C54.1519 15.1722 54.2058 15.1867 54.2596 15.2115C54.3156 15.2343 54.3684 15.2644 54.4181 15.3016C54.472 15.3389 54.5145 15.3731 54.5455 15.4042C54.5787 15.4373 54.5973 15.4726 54.6015 15.5098C54.6097 15.5471 54.6139 15.5948 54.6139 15.6528C54.6139 16.0422 54.5807 16.4276 54.5145 16.8087C54.4502 17.192 54.3757 17.5607 54.2907 17.915C55.2664 17.4571 56.2629 17.0635 57.28 16.7342C58.2972 16.4048 59.3154 16.1614 60.3346 16.0039C60.4341 15.9873 60.5428 16.007 60.6609 16.063C60.7811 16.121 60.896 16.2049 61.0058 16.3147C61.041 16.3499 61.0618 16.3851 61.068 16.4203C61.0763 16.4535 61.068 16.4825 61.0431 16.5073C61.0182 16.5322 60.9934 16.5508 60.9685 16.5633C60.9457 16.5736 60.9085 16.5819 60.8567 16.5881C60.3222 16.6627 59.7794 16.758 59.2284 16.874C58.6794 16.9921 58.1211 17.1381 57.5535 17.3121C56.9879 17.4841 56.4141 17.685 55.832 17.915C55.2499 18.1449 54.6615 18.4101 54.067 18.7105C54.0504 18.7188 54.0276 18.7188 53.9986 18.7105C53.9717 18.7001 53.9417 18.6846 53.9085 18.6639C53.8754 18.6431 53.8412 18.6172 53.806 18.5862C53.7687 18.5572 53.7335 18.5261 53.7003 18.4929C53.6527 18.4453 53.6143 18.3966 53.5853 18.3469C53.5543 18.2993 53.5449 18.2506 53.5574 18.2009C53.6278 17.9315 53.6848 17.6902 53.7283 17.4768C53.7739 17.2614 53.8091 17.0542 53.8339 16.8553C53.8588 16.6565 53.8764 16.4566 53.8868 16.2556C53.8992 16.0567 53.9075 15.8392 53.9116 15.6031Z" fill="#17362B"/>
</g>
<defs>
<clipPath id="clip0_220_2304">
<rect width="64" height="64" fill="white"/>
</clipPath>
</defs>
</svg>
