<svg width="33" height="32" viewBox="0 0 33 32" fill="none" xmlns="http://www.w3.org/2000/svg">
<path d="M14.3438 21.9883C14 21.9883 13.707 21.8633 13.4648 21.6133C13.2227 21.3633 13.1016 21.0664 13.1016 20.7227C13.1016 20.3711 13.2227 20.0742 13.4648 19.832C13.707 19.582 14 19.457 14.3438 19.457H18.6094C18.9531 19.457 19.2461 19.582 19.4883 19.832C19.7383 20.0742 19.8633 20.3711 19.8633 20.7227C19.8633 21.0664 19.7383 21.3633 19.4883 21.6133C19.2461 21.8633 18.9531 21.9883 18.6094 21.9883H14.3438ZM11.8359 8.47656H21.1289C21.8242 8.47656 22.457 8.64844 23.0273 8.99219C23.6055 9.32812 24.0664 9.78516 24.4102 10.3633C24.7539 10.9336 24.9258 11.5703 24.9258 12.2734C24.9258 12.9688 24.7539 13.6055 24.4102 14.1836C24.0664 14.7617 23.6055 15.2227 23.0273 15.5664C22.457 15.9023 21.8242 16.0703 21.1289 16.0703H11.8359C11.1328 16.0703 10.4922 15.9023 9.91406 15.5664C9.34375 15.2227 8.88672 14.7617 8.54297 14.1836C8.19922 13.6055 8.02734 12.9688 8.02734 12.2734C8.02734 11.5703 8.19922 10.9336 8.54297 10.3633C8.88672 9.78516 9.34375 9.32812 9.91406 8.99219C10.4922 8.64844 11.1328 8.47656 11.8359 8.47656ZM12.4688 10.1641C12.1797 10.1641 11.9297 10.2656 11.7188 10.4688C11.5156 10.6719 11.4141 10.9219 11.4141 11.2188V13.3281C11.4141 13.6172 11.5156 13.8672 11.7188 14.0781C11.9297 14.2812 12.1797 14.3828 12.4688 14.3828C12.7578 14.3828 13.0039 14.2812 13.207 14.0781C13.418 13.8672 13.5234 13.6172 13.5234 13.3281V11.2188C13.5234 10.9219 13.418 10.6719 13.207 10.4688C13.0039 10.2656 12.7578 10.1641 12.4688 10.1641ZM19.4297 11.2188V13.3281C19.4297 13.6172 19.5312 13.8672 19.7344 14.0781C19.9453 14.2812 20.1992 14.3828 20.4961 14.3828C20.7852 14.3828 21.0312 14.2812 21.2344 14.0781C21.4453 13.8672 21.5508 13.6172 21.5508 13.3281V11.2188C21.5508 10.9219 21.4453 10.6719 21.2344 10.4688C21.0312 10.2656 20.7852 10.1641 20.4961 10.1641C20.1992 10.1641 19.9453 10.2656 19.7344 10.4688C19.5312 10.6719 19.4297 10.9219 19.4297 11.2188ZM6.33984 4.17578V7.12891C6.86328 6.26953 7.57422 5.57422 8.47266 5.04297C9.37109 4.51172 10.3594 4.24609 11.4375 4.24609H12.3281C12.2812 4.11328 12.2578 3.97266 12.2578 3.82422C12.2578 3.47266 12.3789 3.17578 12.6211 2.93359C12.8711 2.68359 13.1719 2.55859 13.5234 2.55859H19.4297C19.7812 2.55859 20.082 2.68359 20.332 2.93359C20.582 3.17578 20.707 3.47266 20.707 3.82422C20.707 3.97266 20.6797 4.11328 20.625 4.24609H21.5273C22.6055 4.24609 23.5938 4.51172 24.4922 5.04297C25.3906 5.57422 26.0977 6.26953 26.6133 7.12891V4.25781C26.3555 4.17188 26.1406 4.01562 25.9688 3.78906C25.8047 3.5625 25.7227 3.30859 25.7227 3.02734C25.7227 2.66016 25.8516 2.35156 26.1094 2.10156C26.3672 1.84375 26.6758 1.71484 27.0352 1.71484C27.3945 1.71484 27.7031 1.84375 27.9609 2.10156C28.2188 2.35156 28.3477 2.66016 28.3477 3.02734C28.3477 3.30859 28.2617 3.5625 28.0898 3.78906C27.9258 4.01562 27.7148 4.17188 27.457 4.25781V10.1641V10.1875V10.3281C27.707 10.4766 27.9102 10.6797 28.0664 10.9375C28.2227 11.1953 28.3008 11.4805 28.3008 11.793V17.7109C28.3008 18.0234 28.2227 18.3086 28.0664 18.5664C27.9102 18.8242 27.707 19.0273 27.457 19.1758V20.3477C27.457 21.4258 27.1914 22.4062 26.6602 23.2891C26.1367 24.1797 25.4297 24.8867 24.5391 25.4102C23.6562 25.9414 22.6719 26.207 21.5859 26.207H11.3672C10.2891 26.207 9.30469 25.9414 8.41406 25.4102C7.52344 24.8867 6.8125 24.1797 6.28125 23.2891C5.75781 22.4062 5.49609 21.4219 5.49609 20.3359V19.2227C5.24609 19.0742 5.04297 18.8711 4.88672 18.6133C4.73047 18.3555 4.65234 18.0742 4.65234 17.7695V11.8516C4.65234 11.5391 4.73047 11.2539 4.88672 10.9961C5.04297 10.7383 5.24609 10.5352 5.49609 10.3867V4.17578C5.25391 4.08984 5.05078 3.9375 4.88672 3.71875C4.73047 3.5 4.65234 3.25391 4.65234 2.98047C4.65234 2.62891 4.77734 2.33203 5.02734 2.08984C5.27734 1.83984 5.57422 1.71484 5.91797 1.71484C6.26953 1.71484 6.56641 1.83984 6.80859 2.08984C7.05859 2.33203 7.18359 2.62891 7.18359 2.98047C7.18359 3.25391 7.10547 3.5 6.94922 3.71875C6.79297 3.9375 6.58984 4.08984 6.33984 4.17578ZM7.18359 10.1875V20.3359C7.18359 21.1094 7.37109 21.8125 7.74609 22.4453C8.12891 23.0781 8.63281 23.582 9.25781 23.957C9.89062 24.332 10.5938 24.5195 11.3672 24.5195H21.5859C22.3594 24.5195 23.0625 24.332 23.6953 23.957C24.3281 23.582 24.832 23.0781 25.207 22.4453C25.582 21.8125 25.7695 21.1133 25.7695 20.3477V10.1875C25.7695 9.40625 25.5781 8.69531 25.1953 8.05469C24.8125 7.40625 24.3008 6.89063 23.6602 6.50781C23.0195 6.125 22.3086 5.93359 21.5273 5.93359H11.4375C10.6562 5.93359 9.94141 6.125 9.29297 6.50781C8.65234 6.89063 8.14062 7.40625 7.75781 8.05469C7.375 8.69531 7.18359 9.40625 7.18359 10.1875Z" fill="white"/>
</svg>
