<svg width="16" height="16" viewBox="0 0 16 16" fill="none" xmlns="http://www.w3.org/2000/svg">
<path d="M4.0013 14.6673C3.64768 14.6673 3.30854 14.5268 3.05849 14.2768C2.80844 14.0267 2.66797 13.6876 2.66797 13.334V2.66732C2.66797 2.3137 2.80844 1.97456 3.05849 1.72451C3.30854 1.47446 3.64768 1.33399 4.0013 1.33399H9.33464C9.54567 1.33364 9.75469 1.37505 9.94966 1.45583C10.1446 1.53661 10.3217 1.65516 10.4706 1.80465L12.8626 4.19665C13.0125 4.34566 13.1314 4.52288 13.2124 4.71809C13.2934 4.91331 13.335 5.12263 13.3346 5.33399V13.334C13.3346 13.6876 13.1942 14.0267 12.9441 14.2768C12.6941 14.5268 12.3549 14.6673 12.0013 14.6673H4.0013Z" stroke="#1666AA" stroke-width="1.33333" stroke-linecap="round" stroke-linejoin="round"/>
<path d="M9.33203 1.33398V4.66732C9.33203 4.84413 9.40227 5.0137 9.52729 5.13872C9.65232 5.26375 9.82189 5.33398 9.9987 5.33398H13.332" stroke="#1666AA" stroke-width="1.33333" stroke-linecap="round" stroke-linejoin="round"/>
<path d="M6.66536 6H5.33203" stroke="#1666AA" stroke-width="1.33333" stroke-linecap="round" stroke-linejoin="round"/>
<path d="M10.6654 8.66602H5.33203" stroke="#1666AA" stroke-width="1.33333" stroke-linecap="round" stroke-linejoin="round"/>
<path d="M10.6654 11.334H5.33203" stroke="#1666AA" stroke-width="1.33333" stroke-linecap="round" stroke-linejoin="round"/>
</svg>
