<svg width="12" height="12" viewBox="0 0 12 12" fill="none" xmlns="http://www.w3.org/2000/svg">
<path d="M7.50185 11V9C7.57141 8.37364 7.39181 7.74506 7.00185 7.25C8.50185 7.25 10.0019 6.25 10.0019 4.5C10.0419 3.875 9.86685 3.26 9.50185 2.75C9.64185 2.175 9.64185 1.575 9.50185 1C9.50185 1 9.00185 1 8.00185 1.75C6.68185 1.5 5.32185 1.5 4.00185 1.75C3.00185 1 2.50185 1 2.50185 1C2.35185 1.575 2.35185 2.175 2.50185 2.75C2.13779 3.25794 1.96109 3.87639 2.00185 4.5C2.00185 6.25 3.50185 7.25 5.00185 7.25C4.80685 7.495 4.66185 7.775 4.57685 8.075C4.49185 8.375 4.46685 8.69 4.50185 9V11" stroke="#657383" stroke-linecap="round" stroke-linejoin="round"/>
<path d="M4.5 9C2.245 10 2 8 1 8" stroke="#657383" stroke-linecap="round" stroke-linejoin="round"/>
</svg>
