<svg width="20" height="20" viewBox="0 0 20 20" fill="none" xmlns="http://www.w3.org/2000/svg">
<path d="M10.0013 18.3327C7.79116 18.3327 5.67155 17.4547 4.10875 15.8919C2.54594 14.3291 1.66797 12.2095 1.66797 9.99935C1.66797 7.78921 2.54594 5.6696 4.10875 4.10679C5.67155 2.54399 7.79116 1.66602 10.0013 1.66602C12.2114 1.66602 14.3311 2.45619 15.8939 3.86271C17.4567 5.26924 18.3346 7.17689 18.3346 9.16602C18.3346 10.2711 17.8956 11.3309 17.1142 12.1123C16.3328 12.8937 15.273 13.3327 14.168 13.3327H12.293C12.0221 13.3327 11.7567 13.4081 11.5263 13.5505C11.2959 13.6929 11.1097 13.8966 10.9886 14.1388C10.8675 14.3811 10.8162 14.6522 10.8405 14.922C10.8649 15.1917 10.9638 15.4494 11.1263 15.666L11.3763 15.9993C11.5388 16.216 11.6378 16.4736 11.6621 16.7434C11.6864 17.0131 11.6351 17.2843 11.514 17.5265C11.3929 17.7688 11.2067 17.9725 10.9763 18.1149C10.7459 18.2573 10.4805 18.3327 10.2096 18.3327H10.0013Z" stroke="#1666AA" stroke-width="1.66667" stroke-linecap="round" stroke-linejoin="round"/>
<path d="M11.2487 5.83333C11.4788 5.83333 11.6654 5.64679 11.6654 5.41667C11.6654 5.18655 11.4788 5 11.2487 5C11.0186 5 10.832 5.18655 10.832 5.41667C10.832 5.64679 11.0186 5.83333 11.2487 5.83333Z" fill="#1666AA" stroke="#1666AA" stroke-width="1.66667" stroke-linecap="round" stroke-linejoin="round"/>
<path d="M14.5846 9.16732C14.8148 9.16732 15.0013 8.98077 15.0013 8.75065C15.0013 8.52053 14.8148 8.33398 14.5846 8.33398C14.3545 8.33398 14.168 8.52053 14.168 8.75065C14.168 8.98077 14.3545 9.16732 14.5846 9.16732Z" fill="#1666AA" stroke="#1666AA" stroke-width="1.66667" stroke-linecap="round" stroke-linejoin="round"/>
<path d="M5.41667 10.8333C5.64679 10.8333 5.83333 10.6468 5.83333 10.4167C5.83333 10.1865 5.64679 10 5.41667 10C5.18655 10 5 10.1865 5 10.4167C5 10.6468 5.18655 10.8333 5.41667 10.8333Z" fill="#1666AA" stroke="#1666AA" stroke-width="1.66667" stroke-linecap="round" stroke-linejoin="round"/>
<path d="M7.08464 6.66732C7.31475 6.66732 7.5013 6.48077 7.5013 6.25065C7.5013 6.02053 7.31475 5.83398 7.08464 5.83398C6.85452 5.83398 6.66797 6.02053 6.66797 6.25065C6.66797 6.48077 6.85452 6.66732 7.08464 6.66732Z" fill="#1666AA" stroke="#1666AA" stroke-width="1.66667" stroke-linecap="round" stroke-linejoin="round"/>
</svg>
