<svg width="14" height="14" viewBox="0 0 14 14" fill="none" xmlns="http://www.w3.org/2000/svg">
<g clip-path="url(#clip0_145_305)">
<path d="M12.8332 6.99996H11.3865C11.1316 6.99941 10.8835 7.08239 10.6802 7.23619C10.4768 7.38999 10.3295 7.60616 10.2607 7.85163L8.88984 12.7283C8.881 12.7586 8.86258 12.7852 8.83734 12.8041C8.81209 12.8231 8.78139 12.8333 8.74984 12.8333C8.71828 12.8333 8.68758 12.8231 8.66234 12.8041C8.63709 12.7852 8.61867 12.7586 8.60984 12.7283L5.38984 1.27163C5.381 1.24133 5.36258 1.21473 5.33734 1.19579C5.31209 1.17686 5.28139 1.16663 5.24984 1.16663C5.21828 1.16663 5.18758 1.17686 5.16234 1.19579C5.13709 1.21473 5.11867 1.24133 5.10984 1.27163L3.739 6.14829C3.67044 6.3928 3.52398 6.60826 3.32184 6.76197C3.11971 6.91567 2.87294 6.99923 2.619 6.99996H1.1665" stroke="#74C6E6" stroke-width="1.16667" stroke-linecap="round" stroke-linejoin="round"/>
</g>
<defs>
<clipPath id="clip0_145_305">
<rect width="14" height="14" fill="white"/>
</clipPath>
</defs>
</svg>
