<svg width="18" height="16" viewBox="0 0 18 16" fill="none" xmlns="http://www.w3.org/2000/svg">
<path d="M5.39648 1.98633L6.16992 2.32031C6.28125 2.37305 6.33691 2.46094 6.33691 2.58398C6.33691 2.70703 6.28125 2.79492 6.16992 2.84766L5.39648 3.18164C5.20898 3.26953 5.07422 3.4043 4.99219 3.58594L4.39453 4.95703C4.3418 5.06836 4.25098 5.12402 4.12207 5.12402C3.99316 5.12402 3.90234 5.06836 3.84961 4.95703L3.24316 3.58594C3.16699 3.39844 3.03223 3.26367 2.83887 3.18164L2.07422 2.84766C1.95703 2.79492 1.89844 2.70703 1.89844 2.58398C1.89844 2.46094 1.95703 2.37305 2.07422 2.32031L2.83887 1.98633C3.02637 1.89844 3.16113 1.76367 3.24316 1.58203L3.84961 0.219727C3.90234 0.108398 3.99023 0.0527344 4.11328 0.0527344C4.24219 0.0527344 4.33594 0.108398 4.39453 0.219727L4.99219 1.58203C5.06836 1.76953 5.20312 1.9043 5.39648 1.98633ZM14.9326 6.1084L17.2266 7.14551C17.4551 7.25684 17.6074 7.42383 17.6836 7.64648C17.7598 7.86328 17.7598 8.08301 17.6836 8.30566C17.6074 8.52246 17.4551 8.68652 17.2266 8.79785L14.9326 9.83496C14.3701 10.0928 13.9658 10.5117 13.7197 11.0918L11.9004 15.3809C11.7891 15.6094 11.625 15.7588 11.4082 15.8291C11.1914 15.9053 10.9746 15.9053 10.7578 15.8291C10.541 15.7588 10.377 15.6094 10.2656 15.3809L8.45508 11.0918C8.21484 10.5117 7.81055 10.0928 7.24219 9.83496L4.94824 8.79785C4.71973 8.68652 4.56738 8.52246 4.49121 8.30566C4.41504 8.08301 4.41504 7.86328 4.49121 7.64648C4.56738 7.42383 4.71973 7.25684 4.94824 7.14551L7.24219 6.1084C7.80469 5.85059 8.20898 5.43164 8.45508 4.85156L10.2656 0.5625C10.377 0.339844 10.541 0.19043 10.7578 0.114258C10.9746 0.0380859 11.1914 0.0380859 11.4082 0.114258C11.625 0.19043 11.7891 0.339844 11.9004 0.5625L13.7197 4.85156C13.96 5.43164 14.3643 5.85059 14.9326 6.1084ZM3.98145 10.3975L3.19922 8.5166C3.12891 8.36426 3.01172 8.28809 2.84766 8.28809C2.68945 8.28809 2.5752 8.36426 2.50488 8.5166L1.72266 10.3975C1.61719 10.6494 1.44434 10.834 1.2041 10.9512L0.219727 11.4082C0.0732422 11.4844 0 11.6074 0 11.7773C0 11.9414 0.0732422 12.0615 0.219727 12.1377L1.2041 12.5947C1.44434 12.7119 1.61719 12.8965 1.72266 13.1484L2.50488 15.0293C2.5752 15.1816 2.68945 15.2578 2.84766 15.2578C3.01172 15.2578 3.12891 15.1816 3.19922 15.0293L3.98145 13.1484C4.08691 12.8965 4.25977 12.7119 4.5 12.5947L5.48438 12.1377C5.63086 12.0615 5.7041 11.9414 5.7041 11.7773C5.7041 11.6074 5.63086 11.4844 5.48438 11.4082L4.5 10.9512C4.25391 10.834 4.08105 10.6494 3.98145 10.3975Z" fill="#424E5C"/>
</svg>
