<svg width="14" height="14" viewBox="0 0 14 14" fill="none" xmlns="http://www.w3.org/2000/svg">
<path d="M11.0833 6.41663H2.91667C2.27233 6.41663 1.75 6.93896 1.75 7.58329V11.6666C1.75 12.311 2.27233 12.8333 2.91667 12.8333H11.0833C11.7277 12.8333 12.25 12.311 12.25 11.6666V7.58329C12.25 6.93896 11.7277 6.41663 11.0833 6.41663Z" stroke="#718096" stroke-width="1.16667" stroke-linecap="round" stroke-linejoin="round"/>
<path d="M4.0835 6.41663V4.08329C4.0835 3.30974 4.39079 2.56788 4.93777 2.0209C5.48475 1.47392 6.22661 1.16663 7.00016 1.16663C7.77371 1.16663 8.51558 1.47392 9.06256 2.0209C9.60954 2.56788 9.91683 3.30974 9.91683 4.08329V6.41663" stroke="#718096" stroke-width="1.16667" stroke-linecap="round" stroke-linejoin="round"/>
</svg>
