<svg width="13" height="13" viewBox="0 0 13 13" fill="none" xmlns="http://www.w3.org/2000/svg">
<path d="M6.1408 0.755395C6.16636 0.703748 6.20585 0.660273 6.25481 0.629877C6.30377 0.599481 6.36025 0.583374 6.41788 0.583374C6.47551 0.583374 6.53199 0.599481 6.58095 0.629877C6.62991 0.660273 6.6694 0.703748 6.69496 0.755395L8.04246 3.48481C8.13123 3.66446 8.26227 3.81988 8.42433 3.93774C8.58638 4.0556 8.77462 4.13238 8.97288 4.16148L11.9864 4.60248C12.0435 4.61075 12.0971 4.63484 12.1412 4.67201C12.1854 4.70919 12.2182 4.75797 12.2361 4.81283C12.2539 4.8677 12.256 4.92647 12.2422 4.98248C12.2284 5.0385 12.1992 5.08953 12.1579 5.12981L9.97855 7.25198C9.83482 7.39204 9.72729 7.56493 9.6652 7.75576C9.60311 7.9466 9.58833 8.14966 9.62213 8.34748L10.1366 11.3458C10.1467 11.4029 10.1405 11.4616 10.1188 11.5154C10.0971 11.5691 10.0608 11.6157 10.0139 11.6497C9.96697 11.6838 9.91145 11.704 9.85363 11.708C9.79582 11.712 9.73804 11.6997 9.68688 11.6725L6.99305 10.2561C6.81555 10.1629 6.61807 10.1142 6.41759 10.1142C6.21711 10.1142 6.01963 10.1629 5.84213 10.2561L3.14888 11.6725C3.09774 11.6996 3.04003 11.7117 2.98231 11.7076C2.92459 11.7035 2.86918 11.6833 2.82238 11.6493C2.77559 11.6152 2.73928 11.5688 2.7176 11.5151C2.69591 11.4615 2.68971 11.4028 2.69971 11.3458L3.21363 8.34806C3.24758 8.15016 3.23287 7.94696 3.17078 7.75601C3.10868 7.56505 3.00107 7.39207 2.85721 7.25198L0.677879 5.1304C0.636226 5.09016 0.606709 5.03904 0.592691 4.98286C0.578673 4.92667 0.580717 4.86767 0.598592 4.81259C0.616466 4.75751 0.649452 4.70855 0.693791 4.6713C0.73813 4.63405 0.79204 4.61 0.849379 4.6019L3.8623 4.16148C4.06078 4.1326 4.24927 4.05593 4.41155 3.93805C4.57383 3.82018 4.70504 3.66464 4.79388 3.48481L6.1408 0.755395Z" stroke="#FFD166" stroke-width="1.16667" stroke-linecap="round" stroke-linejoin="round"/>
</svg>
