<svg width="20" height="20" viewBox="0 0 20 20" fill="none" xmlns="http://www.w3.org/2000/svg">
<path d="M2.22168 4.13574C2.22168 3.68457 2.33105 3.27214 2.5498 2.89844C2.77311 2.52474 3.07161 2.22852 3.44531 2.00977C3.81901 1.78646 4.23145 1.6748 4.68262 1.6748H14.54C14.9912 1.6748 15.4036 1.78646 15.7773 2.00977C16.151 2.22852 16.4473 2.52474 16.666 2.89844C16.8893 3.27214 17.001 3.68457 17.001 4.13574V13.9932C17.001 14.4443 16.8893 14.8568 16.666 15.2305C16.4473 15.6042 16.151 15.9004 15.7773 16.1191C15.4036 16.3424 14.9912 16.4541 14.54 16.4541H4.68262C4.23145 16.4541 3.81901 16.3424 3.44531 16.1191C3.07161 15.9004 2.77311 15.6042 2.5498 15.2305C2.33105 14.8568 2.22168 14.4443 2.22168 13.9932V4.13574ZM4.68262 2.65918C4.27702 2.65918 3.92839 2.80501 3.63672 3.09668C3.34961 3.38379 3.20605 3.73014 3.20605 4.13574V6.11133H6.6582V2.65918H4.68262ZM7.15039 2.65918V6.11133H12.0791V2.65918H7.15039ZM12.5713 2.65918V6.11133H12.9883L12.0791 7.02734V6.60352H7.15039V8.92773C6.98633 8.90495 6.82227 8.90951 6.6582 8.94141V6.60352H3.20605V12.667L6.19336 9.7207C6.40299 9.51107 6.65365 9.40625 6.94531 9.40625C7.23698 9.40169 7.48991 9.49967 7.7041 9.7002L8.76367 10.7119C8.8776 10.8213 8.99154 10.819 9.10547 10.7051L15.9824 3.80762C15.9049 3.47949 15.7318 3.20605 15.4629 2.9873C15.1986 2.76855 14.891 2.65918 14.54 2.65918H12.5713ZM6.77441 10.5068L3.20605 14.041C3.21973 14.4375 3.37012 14.7747 3.65723 15.0527C3.94434 15.3307 4.28613 15.4697 4.68262 15.4697H6.6582V12.0176H5.94727L6.44629 11.5254H6.6582V11.3203L6.95215 11.0264L7.15039 11.2109V11.5254H7.48535L7.83398 11.8604C7.89779 11.9196 7.96615 11.972 8.03906 12.0176H7.15039V15.4697H12.0791V12.0176H9.78906C9.87565 11.9629 9.95312 11.9014 10.0215 11.833L10.3291 11.5254H12.0791V9.80273L12.5713 9.31055V11.5254H16.0166V5.20898L9.67969 11.4775C9.47005 11.6826 9.2194 11.7874 8.92773 11.792C8.63607 11.7965 8.38542 11.6986 8.17578 11.498L7.11621 10.5068C6.99772 10.3975 6.88379 10.3975 6.77441 10.5068ZM16.0166 12.0176H12.5713V15.4697H14.54C14.9502 15.4697 15.2988 15.3239 15.5859 15.0322C15.873 14.7451 16.0166 14.3988 16.0166 13.9932V12.0176Z" fill="#424957"/>
</svg>
