<svg width="25" height="28" viewBox="0 0 25 28" fill="none" xmlns="http://www.w3.org/2000/svg">
<path d="M4.43848 17.0928C4.18066 17.0928 3.95801 16.999 3.77051 16.8115C3.58301 16.624 3.48926 16.3984 3.48926 16.1348V6.31738C3.48926 5.97168 3.6123 5.67578 3.8584 5.42969C4.11035 5.17773 4.40918 5.05176 4.75488 5.05176H11.7246C12.0762 5.05176 12.375 5.17773 12.6211 5.42969C12.8672 5.67578 12.9902 5.97168 12.9902 6.31738V6.9502H15.5303C15.876 6.9502 16.1719 7.07617 16.418 7.32812C16.6699 7.57422 16.7959 7.87012 16.7959 8.21582V9.49023H19.96C20.3115 9.49023 20.6104 9.61328 20.8564 9.85938C21.1025 10.1055 21.2256 10.4043 21.2256 10.7559V20.2568H12.6738C12.5859 20.2568 12.5098 20.2861 12.4453 20.3447C12.3867 20.4092 12.3574 20.4854 12.3574 20.5732C12.3574 20.6611 12.3867 20.7344 12.4453 20.793C12.5098 20.8574 12.5859 20.8896 12.6738 20.8896H21.1729C21.1084 21.0713 20.9941 21.2207 20.8301 21.3379C20.666 21.4609 20.4814 21.5225 20.2764 21.5225H12.6738C12.4102 21.5225 12.1846 21.4287 11.9971 21.2412C11.8154 21.0596 11.7246 20.8369 11.7246 20.5732V18.9912H8.24414C7.98047 18.9912 7.75488 18.8975 7.56738 18.71C7.38574 18.5225 7.29492 18.2998 7.29492 18.042V17.0928H4.43848ZM12.9375 16.4512C12.873 16.6387 12.7588 16.7939 12.5947 16.917C12.4307 17.0342 12.2461 17.0928 12.041 17.0928H16.1631V8.21582C16.1631 8.0459 16.0986 7.89941 15.9697 7.77637C15.8467 7.64746 15.7002 7.58301 15.5303 7.58301H12.9902V15.8184H4.43848C4.35059 15.8184 4.27441 15.8506 4.20996 15.915C4.15137 15.9736 4.12207 16.0469 4.12207 16.1348C4.12207 16.2227 4.15137 16.2988 4.20996 16.3633C4.27441 16.4219 4.35059 16.4512 4.43848 16.4512H12.9375ZM7.92773 17.0928H8.24414C8.13281 17.0928 8.02734 17.1104 7.92773 17.1455V17.0928ZM12.3574 15.1855V6.31738C12.3574 6.1416 12.2959 5.99219 12.1729 5.86914C12.0498 5.74609 11.9004 5.68457 11.7246 5.68457H5.3877V15.1855H12.3574ZM12.3574 18.9912V19.6768C12.4629 19.6416 12.5684 19.624 12.6738 19.624H20.5928V10.7559C20.5928 10.5801 20.5312 10.4307 20.4082 10.3076C20.2852 10.1846 20.1357 10.123 19.96 10.123H16.7959V17.7256H8.24414C8.15625 17.7256 8.08008 17.7578 8.01562 17.8223C7.95703 17.8809 7.92773 17.9541 7.92773 18.042C7.92773 18.1299 7.95703 18.2061 8.01562 18.2705C8.08008 18.3291 8.15625 18.3584 8.24414 18.3584H16.7432C16.6729 18.54 16.5557 18.6924 16.3916 18.8154C16.2334 18.9326 16.0518 18.9912 15.8467 18.9912H12.3574Z" fill="#424957"/>
</svg>
