<svg width="22" height="24" viewBox="0 0 22 24" fill="none" xmlns="http://www.w3.org/2000/svg">
<path d="M10.5391 17.6797C9.88802 17.6536 9.29688 17.5 8.76562 17.2188C8.23438 16.9375 7.78385 16.5651 7.41406 16.1016C7.04948 15.638 6.78646 15.1172 6.625 14.5391C6.46875 13.9609 6.4375 13.3672 6.53125 12.7578C6.64062 12.0547 6.85156 11.4062 7.16406 10.8125C7.47656 10.2135 7.83073 9.67969 8.22656 9.21094C8.6276 8.73698 9.01562 8.33594 9.39062 8.00781C9.76562 7.67448 10.0755 7.42188 10.3203 7.25C10.5703 7.07292 10.6953 6.98438 10.6953 6.98438C10.6953 6.98438 10.7969 7.05469 11 7.19531C11.2031 7.33594 11.4635 7.54427 11.7812 7.82031C12.1042 8.09115 12.4453 8.42188 12.8047 8.8125C13.1693 9.19792 13.5104 9.64062 13.8281 10.1406C14.151 10.6354 14.4141 11.1771 14.6172 11.7656C14.8255 12.3542 14.9297 12.9844 14.9297 13.6562C14.9297 14.224 14.8151 14.7552 14.5859 15.25C14.3568 15.7448 14.0391 16.1771 13.6328 16.5469C13.2318 16.9219 12.7656 17.2083 12.2344 17.4062C11.7031 17.6094 11.138 17.7005 10.5391 17.6797ZM10.0625 1.55469C9.82812 1.6901 9.64062 1.8776 9.5 2.11719C9.27604 2.50781 9.02865 2.9349 8.75781 3.39844C8.49219 3.86198 8.23698 4.30469 7.99219 4.72656C7.77865 4.55469 7.53906 4.47396 7.27344 4.48438C7.08594 4.48438 6.91146 4.52604 6.75 4.60938C6.58854 4.69271 6.45312 4.80729 6.34375 4.95312C4.92708 6.70833 4.05469 8.70312 3.72656 10.9375C3.59115 12 3.66927 13.0443 3.96094 14.0703C4.2526 15.1016 4.73958 16.0312 5.42188 16.8594C6.02083 17.599 6.74219 18.1849 7.58594 18.6172C8.42969 19.0547 9.32552 19.3021 10.2734 19.3594C10.4089 19.3646 10.5495 19.3672 10.6953 19.3672C11.638 19.362 12.5417 19.1771 13.4062 18.8125C14.2708 18.4479 15.0339 17.9297 15.6953 17.2578C16.3568 16.5911 16.8646 15.8229 17.2188 14.9531C17.5729 14.0833 17.7474 13.1797 17.7422 12.2422C17.7422 11.1172 17.5833 10.0651 17.2656 9.08594C16.9479 8.10677 16.5391 7.21094 16.0391 6.39844C15.5391 5.58073 15.0104 4.85677 14.4531 4.22656C13.901 3.59115 13.3802 3.05729 12.8906 2.625C12.401 2.19271 12.0156 1.86979 11.7344 1.65625C11.4635 1.45312 11.1589 1.35156 10.8203 1.35156C10.5495 1.35156 10.2969 1.41927 10.0625 1.55469ZM11.0547 2.55469C11.3099 2.7474 11.6615 3.04427 12.1094 3.44531C12.5625 3.84115 13.0469 4.33073 13.5625 4.91406C14.0781 5.49219 14.5677 6.15625 15.0312 6.90625C15.4948 7.65104 15.875 8.47135 16.1719 9.36719C16.4688 10.263 16.6172 11.2214 16.6172 12.2422C16.6224 13.0339 16.4766 13.7943 16.1797 14.5234C15.8828 15.2578 15.4557 15.9062 14.8984 16.4688C14.3464 17.0312 13.7057 17.4661 12.9766 17.7734C12.2474 18.0807 11.487 18.237 10.6953 18.2422C10.5755 18.2422 10.4557 18.2396 10.3359 18.2344C9.45573 18.1823 8.65365 17.9479 7.92969 17.5312C7.21094 17.1198 6.60156 16.5807 6.10156 15.9141C5.60156 15.2422 5.23958 14.4922 5.01562 13.6641C4.79167 12.8307 4.73438 11.9688 4.84375 11.0781C5.15104 9.04688 5.94792 7.23177 7.23438 5.63281C7.23958 5.6276 7.24479 5.6224 7.25 5.61719C7.25521 5.61198 7.26302 5.60938 7.27344 5.60938C7.3151 5.60938 7.35677 5.69271 7.39844 5.85938C7.4401 6.02083 7.48177 6.19792 7.52344 6.39062C7.57031 6.59375 7.61458 6.77865 7.65625 6.94531C7.70312 7.11198 7.7474 7.19531 7.78906 7.19531C7.79427 7.19531 7.79948 7.19271 7.80469 7.1875C7.8099 7.1875 7.8151 7.1849 7.82031 7.17969C7.86198 7.13281 7.95833 6.98438 8.10938 6.73438C8.26042 6.48438 8.44271 6.17969 8.65625 5.82031C8.86979 5.45573 9.09115 5.07292 9.32031 4.67188C9.55469 4.27083 9.77344 3.89323 9.97656 3.53906C10.1849 3.1849 10.3516 2.89844 10.4766 2.67969C10.513 2.61719 10.5625 2.56771 10.625 2.53125C10.6875 2.49479 10.7526 2.47656 10.8203 2.47656C10.9089 2.47656 10.987 2.5026 11.0547 2.55469Z" fill="#424957"/>
</svg>
