<svg width="25" height="28" viewBox="0 0 25 28" fill="none" xmlns="http://www.w3.org/2000/svg">
<path d="M11.6279 13.3574L11.2939 13.6914C11.1475 13.8379 11.0742 14.0166 11.0742 14.2275C11.0742 14.4443 11.1475 14.626 11.2939 14.7725L11.6279 15.1064C11.6807 15.1592 11.7422 15.1855 11.8125 15.1855H12.085C12.2549 15.1855 12.3398 15.2676 12.3398 15.4316V16.8203C12.3398 16.9902 12.4248 17.0752 12.5947 17.0752H12.8672C12.9375 17.0752 12.999 17.0488 13.0518 16.9961L13.3066 16.7412C13.5059 16.542 13.6055 16.3018 13.6055 16.0205V15.2295C13.6055 15.1885 13.6143 15.1504 13.6318 15.1152L14.2119 13.9551C14.2295 13.9258 14.2383 13.8906 14.2383 13.8496V13.5244C14.2383 13.3604 14.3203 13.2783 14.4844 13.2783H14.6074C14.7773 13.2783 14.8623 13.3604 14.8623 13.5244V13.6475C14.8623 13.8174 14.9473 13.9023 15.1172 13.9023H15.2314C15.4014 13.9023 15.4863 13.8174 15.4863 13.6475V13.5244C15.4863 13.3604 15.5713 13.2783 15.7412 13.2783H15.8643C16.0342 13.2783 16.1191 13.3604 16.1191 13.5244V13.6475C16.1191 13.8174 16.2012 13.9023 16.3652 13.9023H17.0771C17.1943 13.9023 17.2734 13.8496 17.3145 13.7441L17.8682 12.3555C17.9033 12.2734 17.8945 12.1943 17.8418 12.1182C17.7949 12.042 17.7275 12.0039 17.6396 12.0039C17.4697 12.0039 17.3848 11.9219 17.3848 11.7578V11.002C17.3848 10.832 17.4697 10.7471 17.6396 10.7471H17.7539C17.9238 10.7471 18.0088 10.832 18.0088 11.002V11.0635C18.0088 11.2744 18.1143 11.3799 18.3252 11.3799C18.5361 11.3799 18.6416 11.2744 18.6416 11.0635V9.83301C18.6416 9.56348 18.5449 9.33496 18.3516 9.14746C18.1582 8.9541 17.9268 8.85742 17.6572 8.85742H17.6396C17.4697 8.85742 17.3848 8.93945 17.3848 9.10352V9.22656C17.3848 9.39648 17.2998 9.48145 17.1299 9.48145H16.374C16.2041 9.48145 16.1191 9.39648 16.1191 9.22656C16.1191 9.12109 16.0811 9.0332 16.0049 8.96289C15.9346 8.88672 15.8467 8.84863 15.7412 8.84863H15.4863C15.3164 8.84863 15.167 8.91016 15.0381 9.0332C14.915 9.15625 14.8535 9.30566 14.8535 9.48145V9.49902C14.8535 9.56934 14.8271 9.63379 14.7744 9.69238L13.667 10.6855C13.6201 10.7266 13.5615 10.7471 13.4912 10.7471H12.5771C12.4131 10.7471 12.3311 10.832 12.3311 11.002V11.125C12.3311 11.2891 12.2461 11.3711 12.0762 11.3711H11.9531C11.7832 11.3711 11.6982 11.4561 11.6982 11.626V12.3818C11.6982 12.5518 11.7832 12.6367 11.9531 12.6367H12.0762C12.2461 12.6367 12.3311 12.7217 12.3311 12.8916V13.0059C12.3311 13.1758 12.2461 13.2607 12.0762 13.2607H11.8037L11.7861 13.2695C11.71 13.3047 11.6572 13.334 11.6279 13.3574ZM8.85938 17.7168C9.07031 17.7168 9.17578 17.6113 9.17578 17.4004V17.1104C9.17578 16.6709 9.37207 16.3516 9.76465 16.1523L10.1514 15.959C10.3447 15.8594 10.4414 15.707 10.4414 15.502C10.4414 15.2852 10.3447 15.1328 10.1514 15.0449L9.41309 14.6758C9.26074 14.5938 9.09082 14.5527 8.90332 14.5527H8.62207C8.56934 14.5527 8.52246 14.5352 8.48145 14.5L7.33008 13.3486C7.28906 13.3076 7.26855 13.2607 7.26855 13.208V12.8477C7.26855 12.7188 7.33594 12.6543 7.4707 12.6543H7.70801C7.84277 12.6543 7.91016 12.7188 7.91016 12.8477V12.9707C7.91016 13.1816 8.01562 13.2871 8.22656 13.2871C8.4375 13.2871 8.54297 13.1816 8.54297 12.9707V12.8477C8.54297 12.7188 8.60742 12.6543 8.73633 12.6543C9.0293 12.6543 9.27832 12.5518 9.4834 12.3467L9.66797 12.1621C9.76172 12.0684 9.76172 11.9746 9.66797 11.8809L9.22852 11.4414C9.19336 11.4062 9.17578 11.3594 9.17578 11.3008V11.0723C9.17578 10.8613 9.07031 10.7559 8.85938 10.7559C8.64844 10.7559 8.54297 10.8613 8.54297 11.0723C8.54297 11.2832 8.4375 11.3887 8.22656 11.3887C8.01562 11.3887 7.91016 11.2832 7.91016 11.0723V10.9492C7.91016 10.8203 7.97461 10.7559 8.10352 10.7559C8.24414 10.7559 8.30859 10.6885 8.29688 10.5537L8.28809 10.3252C8.27637 10.1904 8.34082 10.123 8.48145 10.123H8.97363C9.1084 10.123 9.17578 10.0586 9.17578 9.92969V9.80664C9.17578 9.5957 9.28125 9.49023 9.49219 9.49023C9.70312 9.49023 9.80859 9.5957 9.80859 9.80664V11.0811C9.80859 11.292 9.91406 11.3975 10.125 11.3975C10.3359 11.3975 10.4414 11.292 10.4414 11.0811V10.8438C10.4414 10.7852 10.459 10.7383 10.4941 10.7031L10.7578 10.4395C10.9688 10.2285 11.0742 9.97656 11.0742 9.68359C11.0742 9.45508 10.9922 9.26172 10.8281 9.10352C10.6699 8.93945 10.4766 8.85742 10.248 8.85742H9.2373C8.77441 8.85742 8.38477 9.02734 8.06836 9.36719L7.67285 9.78906C7.46777 10.0117 7.21289 10.123 6.9082 10.123H6.83789C6.70898 10.123 6.64453 10.0586 6.64453 9.92969C6.64453 9.8125 6.60059 9.70996 6.5127 9.62207C6.43066 9.53418 6.32812 9.49023 6.20508 9.49023H5.81836C5.69531 9.49023 5.58984 9.53418 5.50195 9.62207C5.41992 9.70996 5.37891 9.8125 5.37891 9.92969V10.167C5.37891 10.5596 5.23828 10.8965 4.95703 11.1777L4.80762 11.3271C4.77246 11.3682 4.75488 11.415 4.75488 11.4678V11.5557C4.75488 11.6436 4.79297 11.7051 4.86914 11.7402C4.95117 11.7695 5.02441 11.752 5.08887 11.6875L5.88867 10.8965C5.97656 10.8027 6.08203 10.7559 6.20508 10.7559C6.28711 10.7559 6.28418 10.8027 6.19629 10.8965C6.16113 10.9375 6.12305 10.9844 6.08203 11.0371C6.04102 11.0898 6.02051 11.1484 6.02051 11.2129V12.707C6.02051 12.8359 6.09375 12.9619 6.24023 13.085C6.38672 13.208 6.53906 13.3223 6.69727 13.4277C6.77344 13.4805 6.84375 13.5303 6.9082 13.5771C6.97266 13.624 7.02539 13.668 7.06641 13.709L7.85742 14.5C7.89844 14.541 7.91895 14.5879 7.91895 14.6406V15.3525C7.91895 15.6748 8.03027 15.9473 8.25293 16.1699L8.49902 16.4072C8.53418 16.4482 8.55176 16.4951 8.55176 16.5479V17.418C8.5459 17.5 8.57227 17.5703 8.63086 17.6289C8.69531 17.6875 8.77148 17.7168 8.85938 17.7168ZM16.3301 15.4141C16.2012 15.2559 16.1367 15.0771 16.1367 14.8779V14.7461C16.1367 14.623 16.2041 14.5527 16.3389 14.5352H16.5762C16.7109 14.5352 16.7783 14.5996 16.7783 14.7285C16.7783 14.8223 16.8193 14.8867 16.9014 14.9219C16.9834 14.9512 17.0537 14.9336 17.1123 14.8691L17.3496 14.6055C17.3906 14.5645 17.4404 14.5439 17.499 14.5439H18.0439C18.2139 14.5439 18.3604 14.6055 18.4834 14.7285C18.6123 14.8516 18.6768 15.001 18.6768 15.1768V15.7041C18.6768 15.7686 18.6504 15.8213 18.5977 15.8623C18.5508 15.8975 18.498 15.9092 18.4395 15.8975L18.2988 15.8623C18.1289 15.8271 18.0439 15.7217 18.0439 15.5459C18.0439 15.4463 18.0059 15.3643 17.9297 15.2998C17.8594 15.2354 17.7744 15.2061 17.6748 15.2119L17.5781 15.2295C17.4668 15.2412 17.4111 15.3057 17.4111 15.4229V15.6602C17.4111 15.7656 17.3584 15.8271 17.2529 15.8447C16.9365 15.9209 16.6729 15.8301 16.4619 15.5723L16.3301 15.4141ZM16.7783 17.4092C16.7783 17.6201 16.8838 17.7256 17.0947 17.7256H18.3604C18.5713 17.7256 18.6768 17.6201 18.6768 17.4092V16.8027C18.6768 16.7031 18.6416 16.6211 18.5713 16.5566C18.501 16.4863 18.416 16.4512 18.3164 16.4512H17.2969C17.1562 16.4512 17.0332 16.5039 16.9277 16.6094C16.8281 16.709 16.7783 16.832 16.7783 16.9785V17.4092ZM3.82324 6.85352L7.91016 5.68457L12.3486 6.9502L16.7783 5.68457L20.9004 6.85352C21.1172 6.91211 21.2256 7.0498 21.2256 7.2666V21.0918C21.2256 21.2324 21.1699 21.3467 21.0586 21.4346C20.9473 21.5225 20.8242 21.5488 20.6895 21.5137L16.7783 20.2568L12.3486 21.5225L7.91016 20.248L4.02539 21.5137C3.89062 21.5488 3.76758 21.5225 3.65625 21.4346C3.54492 21.3467 3.48926 21.2324 3.48926 21.0918V7.2666C3.48926 7.0498 3.60059 6.91211 3.82324 6.85352ZM12.3486 20.248L16.7871 18.9912V19.0088L19.7227 19.9053C19.8633 19.9404 19.9893 19.9141 20.1006 19.8262C20.2178 19.7383 20.2764 19.624 20.2764 19.4834V8.21582C20.2764 7.99902 20.168 7.86133 19.9512 7.80273L16.7783 6.96777V6.95898L12.3486 8.20703L7.91016 6.95898L4.72852 7.80273C4.51172 7.86133 4.40332 7.99902 4.40332 8.21582V19.4746C4.40332 19.6152 4.45898 19.7295 4.57031 19.8174C4.6875 19.9053 4.81641 19.9287 4.95703 19.8877L7.91016 18.9912L12.3486 20.248Z" fill="#424957"/>
</svg>
