<svg width="14" height="20" viewBox="0 0 14 20" fill="none" xmlns="http://www.w3.org/2000/svg">
<path d="M6.95898 4.12207C8.03906 4.12207 9.03027 4.37044 9.93262 4.86719C10.835 5.35938 11.5413 6.05664 12.0518 6.95898C12.5667 7.85677 12.8242 8.87077 12.8242 10.001C12.8242 11.1084 12.5736 12.111 12.0723 13.0088C11.5755 13.902 10.8737 14.6038 9.9668 15.1143C9.06445 15.6247 8.06185 15.8799 6.95898 15.8799C5.86979 15.8799 4.87174 15.627 3.96484 15.1211C3.0625 14.6198 2.36068 13.918 1.85938 13.0156C1.35807 12.1133 1.10742 11.1084 1.10742 10.001C1.10742 8.88444 1.36263 7.875 1.87305 6.97266C2.38802 6.07031 3.0944 5.37077 3.99219 4.87402C4.88997 4.37272 5.87891 4.12207 6.95898 4.12207ZM7.37598 10.4043V14.9912C8.13704 14.932 8.83431 14.7201 9.46777 14.3555C10.2197 13.9271 10.8031 13.3278 11.2178 12.5576C11.5687 11.8968 11.7715 11.179 11.8262 10.4043H7.37598ZM11.2041 7.39648C10.7803 6.6263 10.1924 6.03385 9.44043 5.61914C8.81152 5.27279 8.12337 5.07227 7.37598 5.01758V9.58398H11.8262C11.7715 8.7819 11.5641 8.05273 11.2041 7.39648ZM2.7207 12.5645C3.13997 13.3301 3.72786 13.9271 4.48438 14.3555C5.11328 14.7155 5.78548 14.9251 6.50098 14.9844V10.4043H2.10547C2.1556 11.1882 2.36068 11.9082 2.7207 12.5645ZM4.49805 5.62598C3.74609 6.04069 3.15592 6.63314 2.72754 7.40332C2.36296 8.06413 2.1556 8.79102 2.10547 9.58398H6.50098V5.01758C5.79004 5.07682 5.1224 5.27962 4.49805 5.62598Z" fill="#424957"/>
</svg>
